<?xml version="1.0"?>
<svg xmlns="http://www.w3.org/2000/svg" xmlns:xlink="http://www.w3.org/1999/xlink" xmlns:svgjs="http://svgjs.com/svgjs" version="1.1" width="512" height="512" x="0" y="0" viewBox="0 0 511 511" style="enable-background:new 0 0 512 512" xml:space="preserve" class=""><g><linearGradient xmlns="http://www.w3.org/2000/svg" id="SVGID_1_" gradientUnits="userSpaceOnUse" x1="453.5" x2="453.5" y1="363.5" y2="503.5"><stop stop-opacity="1" stop-color="#a8abff" offset="3.6422e-7"/><stop stop-opacity="1" stop-color="#735975" offset="1"/></linearGradient><linearGradient xmlns="http://www.w3.org/2000/svg" id="SVGID_2_" gradientUnits="userSpaceOnUse" x1="255.5" x2="255.5" y1="75.5" y2="283.5"><stop stop-opacity="1" stop-color="#96d1f3" offset="8.3866e-7"/><stop stop-opacity="1" stop-color="#0e4539" offset="1"/></linearGradient><linearGradient xmlns="http://www.w3.org/2000/svg" id="SVGID_3_" gradientUnits="userSpaceOnUse" x1="255.5" x2="255.5" y1="0" y2="511"><stop stop-opacity="1" stop-color="#174fa3" offset="1.1981e-7"/><stop stop-opacity="1" stop-color="#b439b3" offset="1"/></linearGradient><g xmlns="http://www.w3.org/2000/svg"><g><path d="m352.5 503.5h-330c-8.284 0-15-6.716-15-15v-130c0-8.284 6.716-15 15-15h330c8.284 0 15 6.716 15 15v130c0 8.284-6.716 15-15 15z" fill="#ffffff" data-original="#ffffff" style="" class=""/><path d="m483.5 503.5h-60c-11.046 0-20-8.954-20-20v-100c0-11.046 8.954-20 20-20h60c11.046 0 20 8.954 20 20v100c0 11.046-8.954 20-20 20z" fill="url(#SVGID_1_)" data-original="url(#SVGID_1_)" style=""/><path d="m55.5 283.5h400c11.046 0 20-8.954 20-20v-188h-440v188c0 11.046 8.954 20 20 20z" fill="url(#SVGID_2_)" data-original="url(#SVGID_2_)" style=""/><path d="m455.5 7.5h-400c-11.046 0-20 8.954-20 20v48h440v-48c0-11.046-8.954-20-20-20z" fill="#ffffff" data-original="#ffffff" style="" class=""/></g><path d="m52.5 391h-15v-15h15zm90-15h-15v15h15zm30 0h-15v15h15zm-60 0h-15v15h15zm-30 0h-15v15h15zm150 0h-15v15h15zm30 0h-15v15h15zm-60 0h-15v15h15zm60 40h-15v15h15zm-120 0h-15v15h15zm-60 0h-15v15h15zm90 0h-15v15h15zm60 0h-15v15h15zm-120 0h-15v15h15zm90 0h-15v15h15zm-150 0h-15v15h15zm196 55h15v-15h-15zm-196-15h-15v15h15zm181 0h-166v15h166zm277.5-72.5v100c0 15.163-12.336 27.5-27.5 27.5h-60c-15.164 0-27.5-12.337-27.5-27.5v-100c0-15.163 12.336-27.5 27.5-27.5h22.5v-22.5c0-6.893-5.607-12.5-12.5-12.5h-136c-15.164 0-27.5-12.337-27.5-27.5v-2.5h-25v2.5c0 15.163-12.336 27.5-27.5 27.5h-110c-6.893 0-12.5 5.607-12.5 12.5v2.61l257.511.39c12.605 0 22.489 9.663 22.489 22v130c0 12.406-10.093 22.5-22.5 22.5h-330c-12.407 0-22.5-10.094-22.5-22.5v-130c0-12.406 10.093-22.5 22.5-22.5l57.5.087v-2.587c0-15.163 12.336-27.5 27.5-27.5h110c6.893 0 12.5-5.607 12.5-12.5v-2.5h-174.5c-15.164 0-27.5-12.337-27.5-27.5v-236c0-15.163 12.336-27.5 27.5-27.5h400c15.164 0 27.5 12.337 27.5 27.5v236c0 15.163-12.336 27.5-27.5 27.5h-170.5v2.5c0 6.893 5.607 12.5 12.5 12.5h136c15.164 0 27.5 12.337 27.5 27.5v22.5h22.5c15.164 0 27.5 12.337 27.5 27.5zm-488.511-32.5c-4.125 0-7.489 3.364-7.489 7.5v130c0 4.136 3.364 7.5 7.5 7.5h330c4.136 0 7.5-3.364 7.5-7.5v-130c0-3.99-3.224-7-7.5-7zm20.511-283h425v-40.5c0-6.893-5.607-12.5-12.5-12.5h-400c-6.893 0-12.5 5.607-12.5 12.5zm412.5 208c6.893 0 12.5-5.607 12.5-12.5v-180.5h-425v180.5c0 6.893 5.607 12.5 12.5 12.5zm-44.5 130h35v-35h-22.5c-6.893 0-12.5 5.607-12.5 12.5zm85 15h-85v62.5c0 6.893 5.607 12.5 12.5 12.5h60c6.893 0 12.5-5.607 12.5-12.5zm0-37.5c0-6.893-5.607-12.5-12.5-12.5h-22.5v35h35zm-188.5-7.5h-15v15h15zm30 0h-15v15h15zm0 40h-15v15h15zm-30 0h-15v15h15zm-18-289h150v-15h-150zm120 15h-120v15h120zm-90 45h120v-15h-120zm70 15h-70v15h70zm-100 45h130v-15h-130zm-180.303-112.804-45.303 45.304 45.303 45.304 10.606-10.607-34.697-34.697 34.697-34.696zm100 10.608 34.697 34.696-34.697 34.696 10.606 10.607 45.303-45.304-45.303-45.304zm-76.057 70.721 12.72 7.949 50-80-12.72-7.949zm-7.64-166.525h15v-15h-15zm-30 0h15v-15h-15zm-30 0h15v-15h-15z" fill="url(#SVGID_3_)" data-original="url(#SVGID_3_)" style=""/></g></g></svg>
